<svg fill="none" height="22" viewBox="0 0 134 22" width="134" xmlns="http://www.w3.org/2000/svg">
<path clip-rule="evenodd" d="M25.2192 18.7463L21.9434 18.7429L21.9554 7.50879L33.7486 7.5205L33.7371 18.7545L30.4612 18.7511L30.4707 9.69959L25.2289 9.69471L25.2192 18.7463Z" fill="#4EA524" fill-rule="evenodd"></path>
<path clip-rule="evenodd" d="M38.2086 14.6666C38.211 12.3887 39.6603 11.9395 40.5738 11.9405C41.4674 11.9413 42.916 12.3938 42.9134 14.6715C42.912 16.084 42.2956 17.4315 40.5678 17.4295C38.8009 17.4278 38.207 16.0789 38.2086 14.6666ZM35.3332 10.603L35.3213 21.7243L38.3396 21.727L38.3436 17.9228C39.3549 18.9855 41.003 19.0664 41.4001 19.0667C44.2789 19.0699 46.0478 17.2913 46.0502 14.7054C46.0532 12.0096 44.3085 10.3074 41.4693 10.3047C40.7541 10.3035 39.364 10.4152 38.212 11.586H38.1518L38.1735 10.6059L35.3332 10.603Z" fill="#4EA524" fill-rule="evenodd"></path>
<path clip-rule="evenodd" d="M53.5321 17.7945C52.4197 18.8053 51.3464 19.0771 50.1556 19.0761C46.8992 19.0726 46.7827 16.6975 46.7837 15.7185L46.7891 10.6152L49.8074 10.618L49.8024 15.3367C49.8004 16.9575 50.3754 17.4391 51.4871 17.44C53.393 17.442 53.5341 15.7886 53.5347 15.1956L53.5395 10.6217L56.5574 10.6248L56.549 18.7774L53.5311 18.7745L53.5321 17.7945Z" fill="#4EA524" fill-rule="evenodd"></path>
<path clip-rule="evenodd" d="M60.8838 12.2667L62.5121 12.2683C63.3657 12.2692 64.0999 12.3977 64.0995 13.0711C64.0985 13.8092 62.9473 13.8252 62.4514 13.8248L60.8824 13.8233L60.8838 12.2667ZM57.8685 10.626L57.8599 18.7798L63.856 18.7856C66.0402 18.7876 67.5491 18.3696 67.5509 16.7028C67.5523 15.4189 66.8181 14.8565 65.1501 14.5654V14.5172C66.2421 14.3741 67.195 13.7173 67.1965 12.6095C67.1985 10.6353 64.817 10.6328 63.8835 10.6318L57.8685 10.626ZM60.881 15.3478L62.728 15.3498C64.1569 15.3512 64.454 15.7679 64.4536 16.3133C64.453 16.6663 64.2543 17.1476 62.7654 17.1463L60.879 17.1443L60.881 15.3478Z" fill="#4EA524" fill-rule="evenodd"></path>
<path clip-rule="evenodd" d="M74.8587 15.4264C74.8566 17.0632 73.3875 17.4624 72.6523 17.462C72.0972 17.4614 71.104 17.2849 71.1048 16.5129C71.1058 15.5974 72.2377 15.424 72.8736 15.3442C74.0436 15.1839 73.9456 15.2321 74.8595 14.9122L74.8587 15.4264ZM71.3659 13.2724C71.3675 12.0678 72.6771 11.9735 73.2141 11.9739C73.5522 11.9745 74.803 11.9919 74.8417 13.0499L74.8413 13.276C74.7807 14.0783 73.9861 13.9156 71.762 14.1874C69.9354 14.4255 68.0095 14.8741 68.0073 16.734C68.0067 17.4093 68.3026 19.0947 71.5189 19.098C72.7506 19.099 74.1006 18.7956 74.8954 17.9927H74.9558L75.2132 18.7966L78.3888 18.7999V18.6562C77.8145 18.5424 77.7738 17.9953 77.7957 17.1143L77.8595 13.3901C77.8793 12.4448 77.7819 10.3416 73.2362 10.3369C72.144 10.3359 68.6304 10.4287 68.4883 13.2695L71.3659 13.2724Z" fill="#4EA524" fill-rule="evenodd"></path>
<path clip-rule="evenodd" d="M78.1978 12.2843L78.1998 10.6465L87.8878 10.6562L87.8858 12.294L84.5499 12.2907L84.5432 18.8065L81.5258 18.8036L81.5322 12.2878L78.1978 12.2843Z" fill="#4EA524" fill-rule="evenodd"></path>
<path clip-rule="evenodd" d="M91.7369 13.9333L94.4565 13.9362C95.2493 13.9368 96.8378 14.0194 96.8364 15.3676C96.8352 16.4274 95.6834 16.6332 94.3931 16.632L91.7337 16.6293L91.7369 13.9333ZM91.7416 9.76131L99.2649 9.76893L99.2671 7.58632L88.4663 7.5752L88.4551 18.8093L95.0863 18.8162C98.3037 18.8195 100.369 17.7302 100.371 15.4358C100.375 11.8409 96.2454 11.7563 95.0942 11.7554L91.739 11.752L91.7416 9.76131Z" fill="#4EA524" fill-rule="evenodd"></path>
<path clip-rule="evenodd" d="M107.796 15.4593C107.794 17.0962 106.325 17.4953 105.59 17.495C105.034 17.494 104.043 17.3173 104.043 16.5455C104.045 15.63 105.176 15.457 105.811 15.3772C106.982 15.2163 106.883 15.2647 107.796 14.9452L107.796 15.4593ZM104.304 13.3055C104.306 12.1008 105.615 12.0063 106.151 12.0069C106.49 12.0069 107.741 12.0249 107.779 13.0829L107.779 13.309C107.718 14.1113 106.924 13.9483 104.7 14.2204C102.873 14.4585 100.948 14.9071 100.946 16.767C100.945 17.4425 101.241 19.1277 104.457 19.1306C105.688 19.1318 107.039 18.8286 107.833 18.0254H107.894L108.151 18.8296L111.327 18.8325V18.6889C110.751 18.5749 110.711 18.0283 110.732 17.1469L110.796 13.4228C110.817 12.4774 110.719 10.3746 106.172 10.3701C105.081 10.369 101.567 10.4611 101.425 13.3025L104.304 13.3055Z" fill="#4EA524" fill-rule="evenodd"></path>
<path clip-rule="evenodd" d="M115.099 18.836L112.082 18.8331L112.09 10.6797L115.108 10.6826L115.104 13.7491L118.737 13.753L118.741 10.6867L121.76 10.6896L121.75 18.8426L118.732 18.8399L118.736 15.3898L115.103 15.3859L115.099 18.836Z" fill="#4EA524" fill-rule="evenodd"></path>
<path clip-rule="evenodd" d="M129.383 10.6971L132.739 10.7006L128.585 14.5157L132.927 18.8548L129.393 18.8514L126.141 15.284H126.083L126.079 18.8479L123.06 18.845L123.07 10.6914L126.088 10.6941L126.084 13.968H126.142L129.383 10.6971Z" fill="#4EA524" fill-rule="evenodd"></path>
<path clip-rule="evenodd" d="M0 18.7484L7.56008 18.7556L7.56793 11.4252L0.00764783 11.418L0 18.7484Z" fill="black" fill-rule="evenodd"></path>
<path clip-rule="evenodd" d="M0.0291917 0L0.0195312 9.12513L2.01803 9.12708C7.27793 9.13235 9.94239 11.7222 9.93675 16.8235L9.93474 18.7607L19.3434 18.7699L19.3635 0.0191303L0.0291917 0ZM15.3617 3.89164L15.35 14.89L13.8075 14.8886C13.1478 9.44898 9.62699 6.02798 4.01992 5.37755L4.02133 3.88051L15.3617 3.89164Z" fill="#4EA524" fill-rule="evenodd"></path>
</svg>